<?xml version="1.0" encoding="utf-8" standalone="no"?>
<!DOCTYPE svg PUBLIC "-//W3C//DTD SVG 1.1//EN"
  "http://www.w3.org/Graphics/SVG/1.1/DTD/svg11.dtd">
<svg xmlns:xlink="http://www.w3.org/1999/xlink" width="460.8pt" height="327.877969pt" viewBox="0 0 460.8 327.877969" xmlns="http://www.w3.org/2000/svg" version="1.1">
 <metadata>
  <rdf:RDF xmlns:dc="http://purl.org/dc/elements/1.1/" xmlns:cc="http://creativecommons.org/ns#" xmlns:rdf="http://www.w3.org/1999/02/22-rdf-syntax-ns#">
   <cc:Work>
    <dc:type rdf:resource="http://purl.org/dc/dcmitype/StillImage"/>
    <dc:date>2025-03-04T08:53:25.893102</dc:date>
    <dc:format>image/svg+xml</dc:format>
    <dc:creator>
     <cc:Agent>
      <dc:title>Matplotlib v3.9.2, https://matplotlib.org/</dc:title>
     </cc:Agent>
    </dc:creator>
   </cc:Work>
  </rdf:RDF>
 </metadata>
 <defs>
  <style type="text/css">*{stroke-linejoin: round; stroke-linecap: butt}</style>
 </defs>
 <g id="figure_1">
  <g id="patch_1">
   <path d="M 0 327.877969 
L 460.8 327.877969 
L 460.8 0 
L 0 0 
z
" style="fill: #ffffff"/>
  </g>
  <g id="axes_1">
   <g id="patch_2">
    <path d="M 44.4 139.141969 
C 45.583867 139.141969 46.719405 138.671614 47.556525 137.834493 
C 48.393645 136.997373 48.864 135.861835 48.864 134.677969 
C 48.864 133.494102 48.393645 132.358564 47.556525 131.521444 
C 46.719405 130.684324 45.583867 130.213969 44.4 130.213969 
C 43.216133 130.213969 42.080595 130.684324 41.243475 131.521444 
C 40.406355 132.358564 39.936 133.494102 39.936 134.677969 
C 39.936 135.861835 40.406355 136.997373 41.243475 137.834493 
C 42.080595 138.671614 43.216133 139.141969 44.4 139.141969 
z
" clip-path="url(#p6106f24e23)" style="fill: #0000ff; stroke: #000000; stroke-linejoin: miter"/>
   </g>
   <g id="patch_3">
    <path d="M 118.8 139.141969 
C 119.983867 139.141969 121.119405 138.671614 121.956525 137.834493 
C 122.793645 136.997373 123.264 135.861835 123.264 134.677969 
C 123.264 133.494102 122.793645 132.358564 121.956525 131.521444 
C 121.119405 130.684324 119.983867 130.213969 118.8 130.213969 
C 117.616133 130.213969 116.480595 130.684324 115.643475 131.521444 
C 114.806355 132.358564 114.336 133.494102 114.336 134.677969 
C 114.336 135.861835 114.806355 136.997373 115.643475 137.834493 
C 116.480595 138.671614 117.616133 139.141969 118.8 139.141969 
z
" clip-path="url(#p6106f24e23)" style="fill: #808080; stroke: #000000; stroke-linejoin: miter"/>
   </g>
   <g id="patch_4">
    <path d="M 193.2 139.141969 
C 194.383867 139.141969 195.519405 138.671614 196.356525 137.834493 
C 197.193645 136.997373 197.664 135.861835 197.664 134.677969 
C 197.664 133.494102 197.193645 132.358564 196.356525 131.521444 
C 195.519405 130.684324 194.383867 130.213969 193.2 130.213969 
C 192.016133 130.213969 190.880595 130.684324 190.043475 131.521444 
C 189.206355 132.358564 188.736 133.494102 188.736 134.677969 
C 188.736 135.861835 189.206355 136.997373 190.043475 137.834493 
C 190.880595 138.671614 192.016133 139.141969 193.2 139.141969 
z
" clip-path="url(#p6106f24e23)" style="fill: #808080; stroke: #000000; stroke-linejoin: miter"/>
   </g>
   <g id="patch_5">
    <path d="M 193.2 64.741969 
C 194.383867 64.741969 195.519405 64.271614 196.356525 63.434493 
C 197.193645 62.597373 197.664 61.461835 197.664 60.277969 
C 197.664 59.094102 197.193645 57.958564 196.356525 57.121444 
C 195.519405 56.284324 194.383867 55.813969 193.2 55.813969 
C 192.016133 55.813969 190.880595 56.284324 190.043475 57.121444 
C 189.206355 57.958564 188.736 59.094102 188.736 60.277969 
C 188.736 61.461835 189.206355 62.597373 190.043475 63.434493 
C 190.880595 64.271614 192.016133 64.741969 193.2 64.741969 
z
" clip-path="url(#p6106f24e23)" style="fill: #ff0000; stroke: #000000; stroke-linejoin: miter"/>
   </g>
   <g id="patch_6">
    <path d="M 118.8 213.541969 
C 119.983867 213.541969 121.119405 213.071614 121.956525 212.234493 
C 122.793645 211.397373 123.264 210.261835 123.264 209.077969 
C 123.264 207.894102 122.793645 206.758564 121.956525 205.921444 
C 121.119405 205.084324 119.983867 204.613969 118.8 204.613969 
C 117.616133 204.613969 116.480595 205.084324 115.643475 205.921444 
C 114.806355 206.758564 114.336 207.894102 114.336 209.077969 
C 114.336 210.261835 114.806355 211.397373 115.643475 212.234493 
C 116.480595 213.071614 117.616133 213.541969 118.8 213.541969 
z
" clip-path="url(#p6106f24e23)" style="fill: #808080; stroke: #000000; stroke-linejoin: miter"/>
   </g>
   <g id="patch_7">
    <path d="M 118.8 287.941969 
C 119.983867 287.941969 121.119405 287.471614 121.956525 286.634493 
C 122.793645 285.797373 123.264 284.661835 123.264 283.477969 
C 123.264 282.294102 122.793645 281.158564 121.956525 280.321444 
C 121.119405 279.484324 119.983867 279.013969 118.8 279.013969 
C 117.616133 279.013969 116.480595 279.484324 115.643475 280.321444 
C 114.806355 281.158564 114.336 282.294102 114.336 283.477969 
C 114.336 284.661835 114.806355 285.797373 115.643475 286.634493 
C 116.480595 287.471614 117.616133 287.941969 118.8 287.941969 
z
" clip-path="url(#p6106f24e23)" style="fill: #ffff00; stroke: #000000; stroke-linejoin: miter"/>
   </g>
   <g id="patch_8">
    <path d="M 416.4 139.141969 
C 417.583867 139.141969 418.719405 138.671614 419.556525 137.834493 
C 420.393645 136.997373 420.864 135.861835 420.864 134.677969 
C 420.864 133.494102 420.393645 132.358564 419.556525 131.521444 
C 418.719405 130.684324 417.583867 130.213969 416.4 130.213969 
C 415.216133 130.213969 414.080595 130.684324 413.243475 131.521444 
C 412.406355 132.358564 411.936 133.494102 411.936 134.677969 
C 411.936 135.861835 412.406355 136.997373 413.243475 137.834493 
C 414.080595 138.671614 415.216133 139.141969 416.4 139.141969 
z
" clip-path="url(#p6106f24e23)" style="fill: #0000ff; stroke: #000000; stroke-linejoin: miter"/>
   </g>
   <g id="patch_9">
    <path d="M 342 139.141969 
C 343.183867 139.141969 344.319405 138.671614 345.156525 137.834493 
C 345.993645 136.997373 346.464 135.861835 346.464 134.677969 
C 346.464 133.494102 345.993645 132.358564 345.156525 131.521444 
C 344.319405 130.684324 343.183867 130.213969 342 130.213969 
C 340.816133 130.213969 339.680595 130.684324 338.843475 131.521444 
C 338.006355 132.358564 337.536 133.494102 337.536 134.677969 
C 337.536 135.861835 338.006355 136.997373 338.843475 137.834493 
C 339.680595 138.671614 340.816133 139.141969 342 139.141969 
z
" clip-path="url(#p6106f24e23)" style="fill: #808080; stroke: #000000; stroke-linejoin: miter"/>
   </g>
   <g id="patch_10">
    <path d="M 267.6 139.141969 
C 268.783867 139.141969 269.919405 138.671614 270.756525 137.834493 
C 271.593645 136.997373 272.064 135.861835 272.064 134.677969 
C 272.064 133.494102 271.593645 132.358564 270.756525 131.521444 
C 269.919405 130.684324 268.783867 130.213969 267.6 130.213969 
C 266.416133 130.213969 265.280595 130.684324 264.443475 131.521444 
C 263.606355 132.358564 263.136 133.494102 263.136 134.677969 
C 263.136 135.861835 263.606355 136.997373 264.443475 137.834493 
C 265.280595 138.671614 266.416133 139.141969 267.6 139.141969 
z
" clip-path="url(#p6106f24e23)" style="fill: #808080; stroke: #000000; stroke-linejoin: miter"/>
   </g>
   <g id="patch_11">
    <path d="M 267.6 64.741969 
C 268.783867 64.741969 269.919405 64.271614 270.756525 63.434493 
C 271.593645 62.597373 272.064 61.461835 272.064 60.277969 
C 272.064 59.094102 271.593645 57.958564 270.756525 57.121444 
C 269.919405 56.284324 268.783867 55.813969 267.6 55.813969 
C 266.416133 55.813969 265.280595 56.284324 264.443475 57.121444 
C 263.606355 57.958564 263.136 59.094102 263.136 60.277969 
C 263.136 61.461835 263.606355 62.597373 264.443475 63.434493 
C 265.280595 64.271614 266.416133 64.741969 267.6 64.741969 
z
" clip-path="url(#p6106f24e23)" style="fill: #ff0000; stroke: #000000; stroke-linejoin: miter"/>
   </g>
   <g id="patch_12">
    <path d="M 342 213.541969 
C 343.183867 213.541969 344.319405 213.071614 345.156525 212.234493 
C 345.993645 211.397373 346.464 210.261835 346.464 209.077969 
C 346.464 207.894102 345.993645 206.758564 345.156525 205.921444 
C 344.319405 205.084324 343.183867 204.613969 342 204.613969 
C 340.816133 204.613969 339.680595 205.084324 338.843475 205.921444 
C 338.006355 206.758564 337.536 207.894102 337.536 209.077969 
C 337.536 210.261835 338.006355 211.397373 338.843475 212.234493 
C 339.680595 213.071614 340.816133 213.541969 342 213.541969 
z
" clip-path="url(#p6106f24e23)" style="fill: #808080; stroke: #000000; stroke-linejoin: miter"/>
   </g>
   <g id="patch_13">
    <path d="M 342 287.941969 
C 343.183867 287.941969 344.319405 287.471614 345.156525 286.634493 
C 345.993645 285.797373 346.464 284.661835 346.464 283.477969 
C 346.464 282.294102 345.993645 281.158564 345.156525 280.321444 
C 344.319405 279.484324 343.183867 279.013969 342 279.013969 
C 340.816133 279.013969 339.680595 279.484324 338.843475 280.321444 
C 338.006355 281.158564 337.536 282.294102 337.536 283.477969 
C 337.536 284.661835 338.006355 285.797373 338.843475 286.634493 
C 339.680595 287.471614 340.816133 287.941969 342 287.941969 
z
" clip-path="url(#p6106f24e23)" style="fill: #ffff00; stroke: #000000; stroke-linejoin: miter"/>
   </g>
   <g id="line2d_1">
    <path d="M 44.4 134.677969 
L 118.8 134.677969 
" clip-path="url(#p6106f24e23)" style="fill: none; stroke: #000000; stroke-width: 1.8; stroke-linecap: round"/>
   </g>
   <g id="line2d_2">
    <path d="M 118.8 134.677969 
L 193.2 134.677969 
" clip-path="url(#p6106f24e23)" style="fill: none; stroke: #000000; stroke-width: 1.8; stroke-linecap: round"/>
   </g>
   <g id="line2d_3">
    <path d="M 118.8 134.677969 
L 118.8 209.077969 
" clip-path="url(#p6106f24e23)" style="fill: none; stroke: #000000; stroke-width: 1.8; stroke-linecap: round"/>
   </g>
   <g id="line2d_4">
    <path d="M 189.48 134.677969 
L 189.48 60.277969 
" clip-path="url(#p6106f24e23)" style="fill: none; stroke: #000000; stroke-width: 1.8; stroke-linecap: round"/>
   </g>
   <g id="line2d_5">
    <path d="M 196.92 134.677969 
L 196.92 60.277969 
" clip-path="url(#p6106f24e23)" style="fill: none; stroke: #000000; stroke-width: 1.8; stroke-linecap: round"/>
   </g>
   <g id="line2d_6">
    <path d="M 118.8 209.077969 
L 118.8 283.477969 
" clip-path="url(#p6106f24e23)" style="fill: none; stroke: #000000; stroke-width: 1.8; stroke-linecap: round"/>
   </g>
   <g id="line2d_7">
    <path d="M 118.8 279.757969 
L 342 279.757969 
" clip-path="url(#p6106f24e23)" style="fill: none; stroke: #ffd700; stroke-width: 2.5; stroke-linecap: round"/>
   </g>
   <g id="line2d_8">
    <path d="M 118.8 287.197969 
L 342 287.197969 
" clip-path="url(#p6106f24e23)" style="fill: none; stroke-dasharray: 9.25,4; stroke-dashoffset: 0; stroke: #ffd700; stroke-width: 2.5; stroke-linecap: round"/>
   </g>
   <g id="line2d_9">
    <path d="M 416.4 134.677969 
L 342 134.677969 
" clip-path="url(#p6106f24e23)" style="fill: none; stroke: #000000; stroke-width: 1.8; stroke-linecap: round"/>
   </g>
   <g id="line2d_10">
    <path d="M 342 134.677969 
L 267.6 134.677969 
" clip-path="url(#p6106f24e23)" style="fill: none; stroke: #000000; stroke-width: 1.8; stroke-linecap: round"/>
   </g>
   <g id="line2d_11">
    <path d="M 342 134.677969 
L 342 209.077969 
" clip-path="url(#p6106f24e23)" style="fill: none; stroke: #000000; stroke-width: 1.8; stroke-linecap: round"/>
   </g>
   <g id="line2d_12">
    <path d="M 263.88 134.677969 
L 263.88 60.277969 
" clip-path="url(#p6106f24e23)" style="fill: none; stroke: #000000; stroke-width: 1.8; stroke-linecap: round"/>
   </g>
   <g id="line2d_13">
    <path d="M 271.32 134.677969 
L 271.32 60.277969 
" clip-path="url(#p6106f24e23)" style="fill: none; stroke: #000000; stroke-width: 1.8; stroke-linecap: round"/>
   </g>
   <g id="line2d_14">
    <path d="M 342 209.077969 
L 342 283.477969 
" clip-path="url(#p6106f24e23)" style="fill: none; stroke: #000000; stroke-width: 1.8; stroke-linecap: round"/>
   </g>
   <g id="text_1">
    <g id="patch_14">
     <path d="M 28.135313 140.990937 
L 38.344688 140.990937 
L 38.344688 128.365 
L 28.135313 128.365 
z
" style="fill: #ffffff; opacity: 0.7"/>
    </g>
    <!-- N -->
    <g transform="translate(29.125313 137.713281) scale(0.11 -0.11)">
     <defs>
      <path id="DejaVuSans-4e" d="M 628 4666 
L 1478 4666 
L 3547 763 
L 3547 4666 
L 4159 4666 
L 4159 0 
L 3309 0 
L 1241 3903 
L 1241 0 
L 628 0 
L 628 4666 
z
" transform="scale(0.015625)"/>
     </defs>
     <use xlink:href="#DejaVuSans-4e"/>
    </g>
   </g>
   <g id="text_2">
    <g id="patch_15">
     <path d="M 110.34375 140.990937 
L 127.25625 140.990937 
L 127.25625 128.365 
L 110.34375 128.365 
z
" style="fill: #ffffff; opacity: 0.7"/>
    </g>
    <!-- Cα -->
    <g transform="translate(111.33375 137.713281) scale(0.11 -0.11)">
     <defs>
      <path id="DejaVuSans-43" d="M 4122 4306 
L 4122 3641 
Q 3803 3938 3442 4084 
Q 3081 4231 2675 4231 
Q 1875 4231 1450 3742 
Q 1025 3253 1025 2328 
Q 1025 1406 1450 917 
Q 1875 428 2675 428 
Q 3081 428 3442 575 
Q 3803 722 4122 1019 
L 4122 359 
Q 3791 134 3420 21 
Q 3050 -91 2638 -91 
Q 1578 -91 968 557 
Q 359 1206 359 2328 
Q 359 3453 968 4101 
Q 1578 4750 2638 4750 
Q 3056 4750 3426 4639 
Q 3797 4528 4122 4306 
z
" transform="scale(0.015625)"/>
      <path id="DejaVuSans-3b1" d="M 2644 1628 
L 2506 2350 
Q 2366 3091 1809 3091 
Q 1391 3091 1200 2747 
Q 959 2316 959 1747 
Q 959 1059 1194 731 
Q 1431 397 1809 397 
Q 2228 397 2453 1063 
L 2644 1628 
z
M 2966 2584 
L 3275 3500 
L 3788 3500 
L 3147 1603 
L 3272 919 
Q 3300 766 3409 638 
Q 3538 488 3638 488 
L 3913 488 
L 3913 0 
L 3569 0 
Q 3275 0 3013 263 
Q 2884 394 2831 669 
Q 2688 322 2394 50 
Q 2256 -78 1809 -78 
Q 1075 -78 719 397 
Q 353 888 353 1747 
Q 353 2666 750 3097 
Q 1191 3578 1809 3578 
Q 2781 3578 2966 2584 
z
" transform="scale(0.015625)"/>
     </defs>
     <use xlink:href="#DejaVuSans-43"/>
     <use xlink:href="#DejaVuSans-3b1" x="69.824219"/>
    </g>
   </g>
   <g id="text_3">
    <g id="patch_16">
     <path d="M 186.857812 140.990937 
L 199.542187 140.990937 
L 199.542187 128.365 
L 186.857812 128.365 
z
" style="fill: #ffffff; opacity: 0.7"/>
    </g>
    <!-- C' -->
    <g transform="translate(187.847812 137.713281) scale(0.11 -0.11)">
     <defs>
      <path id="DejaVuSans-27" d="M 1147 4666 
L 1147 2931 
L 616 2931 
L 616 4666 
L 1147 4666 
z
" transform="scale(0.015625)"/>
     </defs>
     <use xlink:href="#DejaVuSans-43"/>
     <use xlink:href="#DejaVuSans-27" x="69.824219"/>
    </g>
   </g>
   <g id="text_4">
    <g id="patch_17">
     <path d="M 187.880469 55.430937 
L 198.519531 55.430937 
L 198.519531 42.805 
L 187.880469 42.805 
z
" style="fill: #ffffff; opacity: 0.7"/>
    </g>
    <!-- O -->
    <g transform="translate(188.870469 52.153281) scale(0.11 -0.11)">
     <defs>
      <path id="DejaVuSans-4f" d="M 2522 4238 
Q 1834 4238 1429 3725 
Q 1025 3213 1025 2328 
Q 1025 1447 1429 934 
Q 1834 422 2522 422 
Q 3209 422 3611 934 
Q 4013 1447 4013 2328 
Q 4013 3213 3611 3725 
Q 3209 4238 2522 4238 
z
M 2522 4750 
Q 3503 4750 4090 4092 
Q 4678 3434 4678 2328 
Q 4678 1225 4090 567 
Q 3503 -91 2522 -91 
Q 1538 -91 948 565 
Q 359 1222 359 2328 
Q 359 3434 948 4092 
Q 1538 4750 2522 4750 
z
" transform="scale(0.015625)"/>
     </defs>
     <use xlink:href="#DejaVuSans-4f"/>
    </g>
   </g>
   <g id="text_5">
    <g id="patch_18">
     <path d="M 110.459766 215.425312 
L 127.140234 215.425312 
L 127.140234 202.730625 
L 110.459766 202.730625 
z
" style="fill: #ffffff; opacity: 0.7"/>
    </g>
    <!-- Cβ -->
    <g transform="translate(111.449766 212.147656) scale(0.11 -0.11)">
     <defs>
      <path id="DejaVuSans-3b2" d="M 1178 216 
L 1178 -1331 
L 600 -1331 
L 600 3478 
Q 600 4903 1931 4903 
Q 3288 4903 3288 3700 
Q 3288 2844 2750 2531 
Q 3625 2250 3625 1416 
Q 3625 -66 2119 -66 
Q 1456 -66 1178 216 
z
M 1178 966 
Q 1525 425 2141 425 
Q 3041 425 3041 1406 
Q 3041 2288 1591 2219 
L 1591 2750 
Q 2725 2750 2725 3750 
Q 2725 4434 1994 4434 
Q 1178 4434 1178 3459 
L 1178 966 
z
" transform="scale(0.015625)"/>
     </defs>
     <use xlink:href="#DejaVuSans-43"/>
     <use xlink:href="#DejaVuSans-3b2" x="69.824219"/>
    </g>
   </g>
   <g id="text_6">
    <g id="patch_19">
     <path d="M 111.063047 289.790937 
L 126.536953 289.790937 
L 126.536953 277.165 
L 111.063047 277.165 
z
" style="fill: #ffffff; opacity: 0.7"/>
    </g>
    <!-- Sγ -->
    <g transform="translate(112.053047 286.513281) scale(0.11 -0.11)">
     <defs>
      <path id="DejaVuSans-53" d="M 3425 4513 
L 3425 3897 
Q 3066 4069 2747 4153 
Q 2428 4238 2131 4238 
Q 1616 4238 1336 4038 
Q 1056 3838 1056 3469 
Q 1056 3159 1242 3001 
Q 1428 2844 1947 2747 
L 2328 2669 
Q 3034 2534 3370 2195 
Q 3706 1856 3706 1288 
Q 3706 609 3251 259 
Q 2797 -91 1919 -91 
Q 1588 -91 1214 -16 
Q 841 59 441 206 
L 441 856 
Q 825 641 1194 531 
Q 1563 422 1919 422 
Q 2459 422 2753 634 
Q 3047 847 3047 1241 
Q 3047 1584 2836 1778 
Q 2625 1972 2144 2069 
L 1759 2144 
Q 1053 2284 737 2584 
Q 422 2884 422 3419 
Q 422 4038 858 4394 
Q 1294 4750 2059 4750 
Q 2388 4750 2728 4690 
Q 3069 4631 3425 4513 
z
" transform="scale(0.015625)"/>
      <path id="DejaVuSans-3b3" d="M 1128 2950 
L 1894 788 
L 2988 3500 
L 3597 3500 
L 2181 0 
L 2181 -1331 
L 1606 -1331 
L 1606 0 
L 688 2613 
Q 550 3006 253 3006 
L 100 3006 
L 100 3500 
L 319 3500 
Q 934 3500 1128 2950 
z
" transform="scale(0.015625)"/>
     </defs>
     <use xlink:href="#DejaVuSans-53"/>
     <use xlink:href="#DejaVuSans-3b3" x="63.476562"/>
    </g>
   </g>
   <g id="text_7">
    <g id="patch_20">
     <path d="M 400.135312 140.990937 
L 410.344687 140.990937 
L 410.344687 128.365 
L 400.135312 128.365 
z
" style="fill: #ffffff; opacity: 0.7"/>
    </g>
    <!-- N -->
    <g transform="translate(401.125312 137.713281) scale(0.11 -0.11)">
     <use xlink:href="#DejaVuSans-4e"/>
    </g>
   </g>
   <g id="text_8">
    <g id="patch_21">
     <path d="M 333.54375 140.990937 
L 350.45625 140.990937 
L 350.45625 128.365 
L 333.54375 128.365 
z
" style="fill: #ffffff; opacity: 0.7"/>
    </g>
    <!-- Cα -->
    <g transform="translate(334.53375 137.713281) scale(0.11 -0.11)">
     <use xlink:href="#DejaVuSans-43"/>
     <use xlink:href="#DejaVuSans-3b1" x="69.824219"/>
    </g>
   </g>
   <g id="text_9">
    <g id="patch_22">
     <path d="M 261.257812 140.990937 
L 273.942187 140.990937 
L 273.942187 128.365 
L 261.257812 128.365 
z
" style="fill: #ffffff; opacity: 0.7"/>
    </g>
    <!-- C' -->
    <g transform="translate(262.247812 137.713281) scale(0.11 -0.11)">
     <use xlink:href="#DejaVuSans-43"/>
     <use xlink:href="#DejaVuSans-27" x="69.824219"/>
    </g>
   </g>
   <g id="text_10">
    <g id="patch_23">
     <path d="M 262.280469 55.430937 
L 272.919531 55.430937 
L 272.919531 42.805 
L 262.280469 42.805 
z
" style="fill: #ffffff; opacity: 0.7"/>
    </g>
    <!-- O -->
    <g transform="translate(263.270469 52.153281) scale(0.11 -0.11)">
     <use xlink:href="#DejaVuSans-4f"/>
    </g>
   </g>
   <g id="text_11">
    <g id="patch_24">
     <path d="M 333.659766 215.425312 
L 350.340234 215.425312 
L 350.340234 202.730625 
L 333.659766 202.730625 
z
" style="fill: #ffffff; opacity: 0.7"/>
    </g>
    <!-- Cβ -->
    <g transform="translate(334.649766 212.147656) scale(0.11 -0.11)">
     <use xlink:href="#DejaVuSans-43"/>
     <use xlink:href="#DejaVuSans-3b2" x="69.824219"/>
    </g>
   </g>
   <g id="text_12">
    <g id="patch_25">
     <path d="M 334.263047 289.790937 
L 349.736953 289.790937 
L 349.736953 277.165 
L 334.263047 277.165 
z
" style="fill: #ffffff; opacity: 0.7"/>
    </g>
    <!-- Sγ -->
    <g transform="translate(335.253047 286.513281) scale(0.11 -0.11)">
     <use xlink:href="#DejaVuSans-53"/>
     <use xlink:href="#DejaVuSans-3b3" x="63.476562"/>
    </g>
   </g>
   <g id="text_13">
    <g id="patch_26">
     <path d="M 60.046875 71.124844 
L 177.553125 71.124844 
L 177.553125 49.431094 
L 60.046875 49.431094 
z
" style="fill: #ffffff; opacity: 0.7; stroke: #000000; stroke-linejoin: miter"/>
    </g>
    <!-- Proximal Cysteine -->
    <g transform="translate(65.086875 63.589219) scale(0.12 -0.12)">
     <defs>
      <path id="DejaVuSans-50" d="M 1259 4147 
L 1259 2394 
L 2053 2394 
Q 2494 2394 2734 2622 
Q 2975 2850 2975 3272 
Q 2975 3691 2734 3919 
Q 2494 4147 2053 4147 
L 1259 4147 
z
M 628 4666 
L 2053 4666 
Q 2838 4666 3239 4311 
Q 3641 3956 3641 3272 
Q 3641 2581 3239 2228 
Q 2838 1875 2053 1875 
L 1259 1875 
L 1259 0 
L 628 0 
L 628 4666 
z
" transform="scale(0.015625)"/>
      <path id="DejaVuSans-72" d="M 2631 2963 
Q 2534 3019 2420 3045 
Q 2306 3072 2169 3072 
Q 1681 3072 1420 2755 
Q 1159 2438 1159 1844 
L 1159 0 
L 581 0 
L 581 3500 
L 1159 3500 
L 1159 2956 
Q 1341 3275 1631 3429 
Q 1922 3584 2338 3584 
Q 2397 3584 2469 3576 
Q 2541 3569 2628 3553 
L 2631 2963 
z
" transform="scale(0.015625)"/>
      <path id="DejaVuSans-6f" d="M 1959 3097 
Q 1497 3097 1228 2736 
Q 959 2375 959 1747 
Q 959 1119 1226 758 
Q 1494 397 1959 397 
Q 2419 397 2687 759 
Q 2956 1122 2956 1747 
Q 2956 2369 2687 2733 
Q 2419 3097 1959 3097 
z
M 1959 3584 
Q 2709 3584 3137 3096 
Q 3566 2609 3566 1747 
Q 3566 888 3137 398 
Q 2709 -91 1959 -91 
Q 1206 -91 779 398 
Q 353 888 353 1747 
Q 353 2609 779 3096 
Q 1206 3584 1959 3584 
z
" transform="scale(0.015625)"/>
      <path id="DejaVuSans-78" d="M 3513 3500 
L 2247 1797 
L 3578 0 
L 2900 0 
L 1881 1375 
L 863 0 
L 184 0 
L 1544 1831 
L 300 3500 
L 978 3500 
L 1906 2253 
L 2834 3500 
L 3513 3500 
z
" transform="scale(0.015625)"/>
      <path id="DejaVuSans-69" d="M 603 3500 
L 1178 3500 
L 1178 0 
L 603 0 
L 603 3500 
z
M 603 4863 
L 1178 4863 
L 1178 4134 
L 603 4134 
L 603 4863 
z
" transform="scale(0.015625)"/>
      <path id="DejaVuSans-6d" d="M 3328 2828 
Q 3544 3216 3844 3400 
Q 4144 3584 4550 3584 
Q 5097 3584 5394 3201 
Q 5691 2819 5691 2113 
L 5691 0 
L 5113 0 
L 5113 2094 
Q 5113 2597 4934 2840 
Q 4756 3084 4391 3084 
Q 3944 3084 3684 2787 
Q 3425 2491 3425 1978 
L 3425 0 
L 2847 0 
L 2847 2094 
Q 2847 2600 2669 2842 
Q 2491 3084 2119 3084 
Q 1678 3084 1418 2786 
Q 1159 2488 1159 1978 
L 1159 0 
L 581 0 
L 581 3500 
L 1159 3500 
L 1159 2956 
Q 1356 3278 1631 3431 
Q 1906 3584 2284 3584 
Q 2666 3584 2933 3390 
Q 3200 3197 3328 2828 
z
" transform="scale(0.015625)"/>
      <path id="DejaVuSans-61" d="M 2194 1759 
Q 1497 1759 1228 1600 
Q 959 1441 959 1056 
Q 959 750 1161 570 
Q 1363 391 1709 391 
Q 2188 391 2477 730 
Q 2766 1069 2766 1631 
L 2766 1759 
L 2194 1759 
z
M 3341 1997 
L 3341 0 
L 2766 0 
L 2766 531 
Q 2569 213 2275 61 
Q 1981 -91 1556 -91 
Q 1019 -91 701 211 
Q 384 513 384 1019 
Q 384 1609 779 1909 
Q 1175 2209 1959 2209 
L 2766 2209 
L 2766 2266 
Q 2766 2663 2505 2880 
Q 2244 3097 1772 3097 
Q 1472 3097 1187 3025 
Q 903 2953 641 2809 
L 641 3341 
Q 956 3463 1253 3523 
Q 1550 3584 1831 3584 
Q 2591 3584 2966 3190 
Q 3341 2797 3341 1997 
z
" transform="scale(0.015625)"/>
      <path id="DejaVuSans-6c" d="M 603 4863 
L 1178 4863 
L 1178 0 
L 603 0 
L 603 4863 
z
" transform="scale(0.015625)"/>
      <path id="DejaVuSans-20" transform="scale(0.015625)"/>
      <path id="DejaVuSans-79" d="M 2059 -325 
Q 1816 -950 1584 -1140 
Q 1353 -1331 966 -1331 
L 506 -1331 
L 506 -850 
L 844 -850 
Q 1081 -850 1212 -737 
Q 1344 -625 1503 -206 
L 1606 56 
L 191 3500 
L 800 3500 
L 1894 763 
L 2988 3500 
L 3597 3500 
L 2059 -325 
z
" transform="scale(0.015625)"/>
      <path id="DejaVuSans-73" d="M 2834 3397 
L 2834 2853 
Q 2591 2978 2328 3040 
Q 2066 3103 1784 3103 
Q 1356 3103 1142 2972 
Q 928 2841 928 2578 
Q 928 2378 1081 2264 
Q 1234 2150 1697 2047 
L 1894 2003 
Q 2506 1872 2764 1633 
Q 3022 1394 3022 966 
Q 3022 478 2636 193 
Q 2250 -91 1575 -91 
Q 1294 -91 989 -36 
Q 684 19 347 128 
L 347 722 
Q 666 556 975 473 
Q 1284 391 1588 391 
Q 1994 391 2212 530 
Q 2431 669 2431 922 
Q 2431 1156 2273 1281 
Q 2116 1406 1581 1522 
L 1381 1569 
Q 847 1681 609 1914 
Q 372 2147 372 2553 
Q 372 3047 722 3315 
Q 1072 3584 1716 3584 
Q 2034 3584 2315 3537 
Q 2597 3491 2834 3397 
z
" transform="scale(0.015625)"/>
      <path id="DejaVuSans-74" d="M 1172 4494 
L 1172 3500 
L 2356 3500 
L 2356 3053 
L 1172 3053 
L 1172 1153 
Q 1172 725 1289 603 
Q 1406 481 1766 481 
L 2356 481 
L 2356 0 
L 1766 0 
Q 1100 0 847 248 
Q 594 497 594 1153 
L 594 3053 
L 172 3053 
L 172 3500 
L 594 3500 
L 594 4494 
L 1172 4494 
z
" transform="scale(0.015625)"/>
      <path id="DejaVuSans-65" d="M 3597 1894 
L 3597 1613 
L 953 1613 
Q 991 1019 1311 708 
Q 1631 397 2203 397 
Q 2534 397 2845 478 
Q 3156 559 3463 722 
L 3463 178 
Q 3153 47 2828 -22 
Q 2503 -91 2169 -91 
Q 1331 -91 842 396 
Q 353 884 353 1716 
Q 353 2575 817 3079 
Q 1281 3584 2069 3584 
Q 2775 3584 3186 3129 
Q 3597 2675 3597 1894 
z
M 3022 2063 
Q 3016 2534 2758 2815 
Q 2500 3097 2075 3097 
Q 1594 3097 1305 2825 
Q 1016 2553 972 2059 
L 3022 2063 
z
" transform="scale(0.015625)"/>
      <path id="DejaVuSans-6e" d="M 3513 2113 
L 3513 0 
L 2938 0 
L 2938 2094 
Q 2938 2591 2744 2837 
Q 2550 3084 2163 3084 
Q 1697 3084 1428 2787 
Q 1159 2491 1159 1978 
L 1159 0 
L 581 0 
L 581 3500 
L 1159 3500 
L 1159 2956 
Q 1366 3272 1645 3428 
Q 1925 3584 2291 3584 
Q 2894 3584 3203 3211 
Q 3513 2838 3513 2113 
z
" transform="scale(0.015625)"/>
     </defs>
     <use xlink:href="#DejaVuSans-50"/>
     <use xlink:href="#DejaVuSans-72" x="58.552734"/>
     <use xlink:href="#DejaVuSans-6f" x="97.416016"/>
     <use xlink:href="#DejaVuSans-78" x="155.472656"/>
     <use xlink:href="#DejaVuSans-69" x="214.652344"/>
     <use xlink:href="#DejaVuSans-6d" x="242.435547"/>
     <use xlink:href="#DejaVuSans-61" x="339.847656"/>
     <use xlink:href="#DejaVuSans-6c" x="401.126953"/>
     <use xlink:href="#DejaVuSans-20" x="428.910156"/>
     <use xlink:href="#DejaVuSans-43" x="460.697266"/>
     <use xlink:href="#DejaVuSans-79" x="530.521484"/>
     <use xlink:href="#DejaVuSans-73" x="589.701172"/>
     <use xlink:href="#DejaVuSans-74" x="641.800781"/>
     <use xlink:href="#DejaVuSans-65" x="681.009766"/>
     <use xlink:href="#DejaVuSans-69" x="742.533203"/>
     <use xlink:href="#DejaVuSans-6e" x="770.316406"/>
     <use xlink:href="#DejaVuSans-65" x="833.695312"/>
    </g>
   </g>
   <g id="text_14">
    <g id="patch_27">
     <path d="M 291.872812 71.124844 
L 392.127187 71.124844 
L 392.127187 49.431094 
L 291.872812 49.431094 
z
" style="fill: #ffffff; opacity: 0.7; stroke: #000000; stroke-linejoin: miter"/>
    </g>
    <!-- Distal Cysteine -->
    <g transform="translate(296.912812 63.589219) scale(0.12 -0.12)">
     <defs>
      <path id="DejaVuSans-44" d="M 1259 4147 
L 1259 519 
L 2022 519 
Q 2988 519 3436 956 
Q 3884 1394 3884 2338 
Q 3884 3275 3436 3711 
Q 2988 4147 2022 4147 
L 1259 4147 
z
M 628 4666 
L 1925 4666 
Q 3281 4666 3915 4102 
Q 4550 3538 4550 2338 
Q 4550 1131 3912 565 
Q 3275 0 1925 0 
L 628 0 
L 628 4666 
z
" transform="scale(0.015625)"/>
     </defs>
     <use xlink:href="#DejaVuSans-44"/>
     <use xlink:href="#DejaVuSans-69" x="77.001953"/>
     <use xlink:href="#DejaVuSans-73" x="104.785156"/>
     <use xlink:href="#DejaVuSans-74" x="156.884766"/>
     <use xlink:href="#DejaVuSans-61" x="196.09375"/>
     <use xlink:href="#DejaVuSans-6c" x="257.373047"/>
     <use xlink:href="#DejaVuSans-20" x="285.15625"/>
     <use xlink:href="#DejaVuSans-43" x="316.943359"/>
     <use xlink:href="#DejaVuSans-79" x="386.767578"/>
     <use xlink:href="#DejaVuSans-73" x="445.947266"/>
     <use xlink:href="#DejaVuSans-74" x="498.046875"/>
     <use xlink:href="#DejaVuSans-65" x="537.255859"/>
     <use xlink:href="#DejaVuSans-69" x="598.779297"/>
     <use xlink:href="#DejaVuSans-6e" x="626.5625"/>
     <use xlink:href="#DejaVuSans-65" x="689.941406"/>
    </g>
   </g>
   <g id="text_15">
    <!-- Disulfide Bond: 6dmb 203A-226A -->
    <g transform="translate(122.362891 17.077969) scale(0.13 -0.13)">
     <defs>
      <path id="DejaVuSans-75" d="M 544 1381 
L 544 3500 
L 1119 3500 
L 1119 1403 
Q 1119 906 1312 657 
Q 1506 409 1894 409 
Q 2359 409 2629 706 
Q 2900 1003 2900 1516 
L 2900 3500 
L 3475 3500 
L 3475 0 
L 2900 0 
L 2900 538 
Q 2691 219 2414 64 
Q 2138 -91 1772 -91 
Q 1169 -91 856 284 
Q 544 659 544 1381 
z
M 1991 3584 
L 1991 3584 
z
" transform="scale(0.015625)"/>
      <path id="DejaVuSans-66" d="M 2375 4863 
L 2375 4384 
L 1825 4384 
Q 1516 4384 1395 4259 
Q 1275 4134 1275 3809 
L 1275 3500 
L 2222 3500 
L 2222 3053 
L 1275 3053 
L 1275 0 
L 697 0 
L 697 3053 
L 147 3053 
L 147 3500 
L 697 3500 
L 697 3744 
Q 697 4328 969 4595 
Q 1241 4863 1831 4863 
L 2375 4863 
z
" transform="scale(0.015625)"/>
      <path id="DejaVuSans-64" d="M 2906 2969 
L 2906 4863 
L 3481 4863 
L 3481 0 
L 2906 0 
L 2906 525 
Q 2725 213 2448 61 
Q 2172 -91 1784 -91 
Q 1150 -91 751 415 
Q 353 922 353 1747 
Q 353 2572 751 3078 
Q 1150 3584 1784 3584 
Q 2172 3584 2448 3432 
Q 2725 3281 2906 2969 
z
M 947 1747 
Q 947 1113 1208 752 
Q 1469 391 1925 391 
Q 2381 391 2643 752 
Q 2906 1113 2906 1747 
Q 2906 2381 2643 2742 
Q 2381 3103 1925 3103 
Q 1469 3103 1208 2742 
Q 947 2381 947 1747 
z
" transform="scale(0.015625)"/>
      <path id="DejaVuSans-42" d="M 1259 2228 
L 1259 519 
L 2272 519 
Q 2781 519 3026 730 
Q 3272 941 3272 1375 
Q 3272 1813 3026 2020 
Q 2781 2228 2272 2228 
L 1259 2228 
z
M 1259 4147 
L 1259 2741 
L 2194 2741 
Q 2656 2741 2882 2914 
Q 3109 3088 3109 3444 
Q 3109 3797 2882 3972 
Q 2656 4147 2194 4147 
L 1259 4147 
z
M 628 4666 
L 2241 4666 
Q 2963 4666 3353 4366 
Q 3744 4066 3744 3513 
Q 3744 3084 3544 2831 
Q 3344 2578 2956 2516 
Q 3422 2416 3680 2098 
Q 3938 1781 3938 1306 
Q 3938 681 3513 340 
Q 3088 0 2303 0 
L 628 0 
L 628 4666 
z
" transform="scale(0.015625)"/>
      <path id="DejaVuSans-3a" d="M 750 794 
L 1409 794 
L 1409 0 
L 750 0 
L 750 794 
z
M 750 3309 
L 1409 3309 
L 1409 2516 
L 750 2516 
L 750 3309 
z
" transform="scale(0.015625)"/>
      <path id="DejaVuSans-36" d="M 2113 2584 
Q 1688 2584 1439 2293 
Q 1191 2003 1191 1497 
Q 1191 994 1439 701 
Q 1688 409 2113 409 
Q 2538 409 2786 701 
Q 3034 994 3034 1497 
Q 3034 2003 2786 2293 
Q 2538 2584 2113 2584 
z
M 3366 4563 
L 3366 3988 
Q 3128 4100 2886 4159 
Q 2644 4219 2406 4219 
Q 1781 4219 1451 3797 
Q 1122 3375 1075 2522 
Q 1259 2794 1537 2939 
Q 1816 3084 2150 3084 
Q 2853 3084 3261 2657 
Q 3669 2231 3669 1497 
Q 3669 778 3244 343 
Q 2819 -91 2113 -91 
Q 1303 -91 875 529 
Q 447 1150 447 2328 
Q 447 3434 972 4092 
Q 1497 4750 2381 4750 
Q 2619 4750 2861 4703 
Q 3103 4656 3366 4563 
z
" transform="scale(0.015625)"/>
      <path id="DejaVuSans-62" d="M 3116 1747 
Q 3116 2381 2855 2742 
Q 2594 3103 2138 3103 
Q 1681 3103 1420 2742 
Q 1159 2381 1159 1747 
Q 1159 1113 1420 752 
Q 1681 391 2138 391 
Q 2594 391 2855 752 
Q 3116 1113 3116 1747 
z
M 1159 2969 
Q 1341 3281 1617 3432 
Q 1894 3584 2278 3584 
Q 2916 3584 3314 3078 
Q 3713 2572 3713 1747 
Q 3713 922 3314 415 
Q 2916 -91 2278 -91 
Q 1894 -91 1617 61 
Q 1341 213 1159 525 
L 1159 0 
L 581 0 
L 581 4863 
L 1159 4863 
L 1159 2969 
z
" transform="scale(0.015625)"/>
      <path id="DejaVuSans-32" d="M 1228 531 
L 3431 531 
L 3431 0 
L 469 0 
L 469 531 
Q 828 903 1448 1529 
Q 2069 2156 2228 2338 
Q 2531 2678 2651 2914 
Q 2772 3150 2772 3378 
Q 2772 3750 2511 3984 
Q 2250 4219 1831 4219 
Q 1534 4219 1204 4116 
Q 875 4013 500 3803 
L 500 4441 
Q 881 4594 1212 4672 
Q 1544 4750 1819 4750 
Q 2544 4750 2975 4387 
Q 3406 4025 3406 3419 
Q 3406 3131 3298 2873 
Q 3191 2616 2906 2266 
Q 2828 2175 2409 1742 
Q 1991 1309 1228 531 
z
" transform="scale(0.015625)"/>
      <path id="DejaVuSans-30" d="M 2034 4250 
Q 1547 4250 1301 3770 
Q 1056 3291 1056 2328 
Q 1056 1369 1301 889 
Q 1547 409 2034 409 
Q 2525 409 2770 889 
Q 3016 1369 3016 2328 
Q 3016 3291 2770 3770 
Q 2525 4250 2034 4250 
z
M 2034 4750 
Q 2819 4750 3233 4129 
Q 3647 3509 3647 2328 
Q 3647 1150 3233 529 
Q 2819 -91 2034 -91 
Q 1250 -91 836 529 
Q 422 1150 422 2328 
Q 422 3509 836 4129 
Q 1250 4750 2034 4750 
z
" transform="scale(0.015625)"/>
      <path id="DejaVuSans-33" d="M 2597 2516 
Q 3050 2419 3304 2112 
Q 3559 1806 3559 1356 
Q 3559 666 3084 287 
Q 2609 -91 1734 -91 
Q 1441 -91 1130 -33 
Q 819 25 488 141 
L 488 750 
Q 750 597 1062 519 
Q 1375 441 1716 441 
Q 2309 441 2620 675 
Q 2931 909 2931 1356 
Q 2931 1769 2642 2001 
Q 2353 2234 1838 2234 
L 1294 2234 
L 1294 2753 
L 1863 2753 
Q 2328 2753 2575 2939 
Q 2822 3125 2822 3475 
Q 2822 3834 2567 4026 
Q 2313 4219 1838 4219 
Q 1578 4219 1281 4162 
Q 984 4106 628 3988 
L 628 4550 
Q 988 4650 1302 4700 
Q 1616 4750 1894 4750 
Q 2613 4750 3031 4423 
Q 3450 4097 3450 3541 
Q 3450 3153 3228 2886 
Q 3006 2619 2597 2516 
z
" transform="scale(0.015625)"/>
      <path id="DejaVuSans-41" d="M 2188 4044 
L 1331 1722 
L 3047 1722 
L 2188 4044 
z
M 1831 4666 
L 2547 4666 
L 4325 0 
L 3669 0 
L 3244 1197 
L 1141 1197 
L 716 0 
L 50 0 
L 1831 4666 
z
" transform="scale(0.015625)"/>
      <path id="DejaVuSans-2d" d="M 313 2009 
L 1997 2009 
L 1997 1497 
L 313 1497 
L 313 2009 
z
" transform="scale(0.015625)"/>
     </defs>
     <use xlink:href="#DejaVuSans-44"/>
     <use xlink:href="#DejaVuSans-69" x="77.001953"/>
     <use xlink:href="#DejaVuSans-73" x="104.785156"/>
     <use xlink:href="#DejaVuSans-75" x="156.884766"/>
     <use xlink:href="#DejaVuSans-6c" x="220.263672"/>
     <use xlink:href="#DejaVuSans-66" x="248.046875"/>
     <use xlink:href="#DejaVuSans-69" x="283.251953"/>
     <use xlink:href="#DejaVuSans-64" x="311.035156"/>
     <use xlink:href="#DejaVuSans-65" x="374.511719"/>
     <use xlink:href="#DejaVuSans-20" x="436.035156"/>
     <use xlink:href="#DejaVuSans-42" x="467.822266"/>
     <use xlink:href="#DejaVuSans-6f" x="536.425781"/>
     <use xlink:href="#DejaVuSans-6e" x="597.607422"/>
     <use xlink:href="#DejaVuSans-64" x="660.986328"/>
     <use xlink:href="#DejaVuSans-3a" x="724.462891"/>
     <use xlink:href="#DejaVuSans-20" x="758.154297"/>
     <use xlink:href="#DejaVuSans-36" x="789.941406"/>
     <use xlink:href="#DejaVuSans-64" x="853.564453"/>
     <use xlink:href="#DejaVuSans-6d" x="917.041016"/>
     <use xlink:href="#DejaVuSans-62" x="1014.453125"/>
     <use xlink:href="#DejaVuSans-20" x="1077.929688"/>
     <use xlink:href="#DejaVuSans-32" x="1109.716797"/>
     <use xlink:href="#DejaVuSans-30" x="1173.339844"/>
     <use xlink:href="#DejaVuSans-33" x="1236.962891"/>
     <use xlink:href="#DejaVuSans-41" x="1300.585938"/>
     <use xlink:href="#DejaVuSans-2d" x="1366.744141"/>
     <use xlink:href="#DejaVuSans-32" x="1402.828125"/>
     <use xlink:href="#DejaVuSans-32" x="1466.451172"/>
     <use xlink:href="#DejaVuSans-36" x="1530.074219"/>
     <use xlink:href="#DejaVuSans-41" x="1593.697266"/>
    </g>
   </g>
  </g>
 </g>
 <defs>
  <clipPath id="p6106f24e23">
   <rect x="7.2" y="23.077969" width="446.4" height="297.6"/>
  </clipPath>
 </defs>
</svg>
